<svg xmlns="http://www.w3.org/2000/svg" width="600" height="125" version="1.1">
    <defs>
        <linearGradient id="background" x1="0%" x2="100%" y1="0%" y2="20%">
            <stop offset="0%" style="stop-color:#ffaf24;stop-opacity:1"/>
            <stop offset="71%" style="stop-color:#fffa70;stop-opacity:1"/>
        </linearGradient>
    </defs>
    <rect width="100%" height="100%" fill="url(#background)"/>
    <image width="100" height="100" href="https://api-assets.clashofclans.com/badges/200/p4X6ZuNfAZ_ENKJOhy2u8og4UJJcKNYwuhr8TQkQ9Is.png"/>
    <text x="110" y="40" fill="#333" font-family="Helvetica" font-size="32">
        Reddit Dynasty <tspan fill="#444" font-size="14">50 members</tspan>
    </text>
    <g>
        <text x="145" y="70" alignment-baseline="middle" font-family="Helvetica" font-size="20" text-anchor="middle">
            31,144
        </text>
        <text x="145" y="85" fill="#555" alignment-baseline="hanging" font-family="Helvetica" font-size="10" text-anchor="middle">
            TROPHIES
        </text>
    </g>
    <g>
        <text x="235" y="70" alignment-baseline="middle" font-family="Helvetica" font-size="20" text-anchor="middle">
            47,870
        </text>
        <text x="235" y="85" fill="#555" alignment-baseline="hanging" font-family="Helvetica" font-size="10" text-anchor="middle">
            BH TROPHIES
        </text>
    </g>
    <g>
        <text x="325" y="70" alignment-baseline="middle" font-family="Helvetica" font-size="20" text-anchor="middle">
            43,135
        </text>
        <text x="325" y="85" fill="#555" alignment-baseline="hanging" font-family="Helvetica" font-size="10" text-anchor="middle">
            TOTAL DONATIONS
        </text>
    </g>
    <g>
        <text x="415" y="70" alignment-baseline="middle" font-family="Helvetica" font-size="20" text-anchor="middle">
            1,186
        </text>
        <text x="415" y="85" fill="#555" alignment-baseline="hanging" font-family="Helvetica" font-size="10" text-anchor="middle">
            TOTAL WINS
        </text>
    </g>
    <g>
        <text x="505" y="70" alignment-baseline="middle" font-family="Helvetica" font-size="20" text-anchor="middle">
            35,487
        </text>
        <text x="505" y="85" fill="#555" alignment-baseline="hanging" font-family="Helvetica" font-size="10" text-anchor="middle">
            VERUS WINS
        </text>
    </g>
    <g transform="translate(490 105)">
        <g transform="scale(0.125)">
            <path fill="#302F2F" d="M457 85.3c.3 3.3.5 6.4.5 9.5 0 3.1-.3 6.2-.8 9.5-1.3.2-3 .4-5.2.6-2.2.2-4.7.4-7.5.6-2.8.2-5.8.4-8.9.6-3.2.2-6.3.4-9.5.5-3.2.1-6.3.2-9.3.2-3 0-5.8-.1-8.4-.3-.1-2.6-.1-5.8-.2-9.6-.1-3.7-.2-7.8-.4-12.1-.2-4.4-.3-8.9-.4-13.5-.1-4.7-.2-9.2-.3-13.7-.1-4.5-.1-8.8 0-12.8 0-4.1.1-7.6.3-10.6.4-.3 1.3-.5 2.5-.7 1.2-.2 2.6-.4 4.2-.5 1.6-.1 3.3-.2 5.2-.3 1.9-.1 3.6-.1 5.3-.1h4.6c1.4 0 2.4.1 3.1.2-.1 4.7-.2 9.8-.2 15.1v37.7c2 .5 4.1.8 6.2 1 2.2.1 4.4.1 6.5 0 2.2-.1 4.3-.3 6.5-.6 2.1-.2 4.2-.5 6.2-.7zM524.4 82.2c-1.7.3-4 .5-7 .8-3 .3-6.3.6-9.9.9-3.6.3-7.3.5-11 .8-3.8.2-7.2.4-10.3.4.2 1.7.6 3.2 1.3 4.4.8.5 2 .9 3.6 1.3s3.5.7 5.5.9c2 .3 4.1.5 6.3.6 2.2.2 4.3.3 6.2.5 1.9.2 3.6.3 5.1.5 1.5.2 2.5.4 3 .6.1 1.1 0 2.4 0 3.9-.1 1.5-.3 3-.5 4.4-.3 1.4-.5 2.7-.9 3.9-.3 1.2-.7 1.9-1.2 2.2-3.6-.1-7.4-.2-11.5-.4s-8.3-.6-12.5-1.1c-4.2-.5-8.4-1.2-12.4-2s-7.7-1.8-11.1-3c-1-1.2-1.7-3-2.3-5.5-.5-2.5-.9-5.4-1.1-8.6-.2-3.2-.1-6.7 0-10.3.2-3.6.6-7.1 1.1-10.5.5-3.4 1.2-6.5 2.1-9.3.8-2.8 1.8-5 2.9-6.6 1.3-.7 3.2-1.4 5.9-2 2.7-.6 5.6-1.2 8.8-1.7 3.2-.5 6.6-.9 10.2-1.3 3.6-.4 6.9-.6 10-.8 3.1-.2 5.8-.2 8.2-.1 2.3.1 4 .3 4.8.7 1.2 2 2.3 4.5 3.1 7.4s1.6 6.1 2.1 9.5c.5 3.3.9 6.7 1.2 10.1.2 3.4.3 6.5.3 9.4zm-22.6-12.3c.1-.7.1-1.5.1-2.4 0-.9 0-1.8-.1-2.8-.1-1-.2-1.9-.4-2.7-.2-.9-.4-1.6-.8-2.2-.9.1-1.7.1-2.5.1s-1.6.1-2.4.2c-.8.1-1.7.3-2.7.5-1 .2-2 .6-3.2 1-.4 1.5-.9 3-1.3 4.6-.4 1.6-.8 3.4-1 5.4 2.8.1 5.5 0 7.9-.4 2.5-.3 4.6-.8 6.4-1.3zM590 105.8c-.9.3-2.1.5-3.7.8-1.6.3-3.3.5-5.2.7-1.9.2-3.8.4-5.8.6-2 .2-3.7.3-5.3.3l-.4-3.7c-5.4.9-9.9 1.6-13.5 2.1-3.6.5-7 .9-10.1 1.2-.8-.3-1.8-.6-3-1.2-1.2-.5-2.5-1.1-3.8-1.8-1.3-.7-2.7-1.4-4-2.2-1.3-.8-2.5-1.6-3.6-2.4-.3-1.3-.5-3.2-.5-5.6 0-2.4.1-4.8.3-7.4.2-2.6.4-5 .8-7.2.3-2.3.7-4 1.1-5 1.4-.8 3.5-1.7 6.2-2.6 2.8-.9 5.7-1.8 8.9-2.6s6.3-1.6 9.5-2.2c3.1-.6 5.8-1 8.1-1.2.1-.3.1-.9.1-1.8s0-1.6-.1-2c-.7-.2-1.7-.4-3.1-.5-1.4-.1-2.9-.2-4.7-.3-1.8-.1-3.6-.1-5.6 0h-5.8c-1.9 0-3.6 0-5.1.1-1.6.1-2.8.1-3.7.1-.1-1.2 0-2.5 0-3.9.1-1.4.2-2.7.4-3.9.2-1.2.4-2.4.8-3.3.3-1 .7-1.7 1.2-2.1 3.5-.4 7.3-.8 11.3-1.1 4-.3 8-.4 11.9-.3 3.9 0 7.6.2 11.2.6 3.6.4 6.8.9 9.6 1.6.8 1.3 1.6 3.2 2.3 5.8.7 2.6 1.3 5.6 1.8 8.9.5 3.4.9 7 1.3 10.8.4 3.9.6 7.7.7 11.4.1 3.7.2 7.3.1 10.7-.2 3.4-.3 6.3-.6 8.6zm-21.8-15.1c-.1-2.4-.2-4.5-.3-6.2-.2-1.7-.4-3.7-.7-5.9-1.1.3-2.2.6-3.5 1-1.2.3-2.4.7-3.6 1-1.2.4-2.2.7-3.2 1.2-1 .4-1.7.8-2.2 1.3v4.5c0 1 .1 1.9.3 2.7.2.9.5 1.4.9 1.7.5.1 1.3.1 2.3 0 1-.1 2.1-.2 3.2-.3 1.2-.1 2.3-.3 3.6-.4 1.2-.3 2.3-.4 3.2-.6zM659.7 107.5c-3 .8-6.4 1.3-10.2 1.7-3.8.4-7.4.4-10.8.1l-.3-4.1c-1.9.3-4.2.7-6.9 1.1-2.7.4-5.3.8-8 1.1-2.7.3-5.2.6-7.6.7-2.4.2-4.3.1-5.7 0-2.2-1.9-4.2-4.2-6.1-7.1-1.9-2.8-3.7-5.6-5.4-8.1-.3-1.3-.4-3.2-.3-5.4 0-2.3.2-4.8.5-7.4.3-2.7.7-5.5 1.2-8.4.5-2.9 1.1-5.7 1.9-8.3.7-2.6 1.6-4.9 2.5-7 1-2 2-3.6 3.1-4.7 4.7-1 9.6-1.7 14.9-2.3 5.2-.5 10.5-.7 15.7-.3 0-1.3 0-2.8-.1-4.4-.1-1.6-.1-3.1-.2-4.7s-.1-3.1-.1-4.6v-4.1c1.6-.2 3.4-.4 5.4-.5 2-.2 4-.3 6-.3 2-.1 4 0 5.8.2 1.9.2 3.5.5 4.8 1 0 5.2.1 11.1.2 17.9.1 6.7.2 13.6.3 20.6s.1 13.8.1 20.4c-.1 6.4-.3 12.1-.7 16.9zm-22.8-43.3c-2.1-.5-4.3-.7-6.6-.7-2.3.1-4.4.6-6.5 1.7-.4 1.9-.8 4-1.2 6.5-.3 2.5-.6 5-.7 7.6-.2 2.6-.2 5-.2 7.2s.2 4 .5 5.4c.9.3 1.9.5 3.1.6 1.2.1 2.4 0 3.7-.1 1.3-.1 2.6-.3 3.9-.6 1.3-.3 2.5-.5 3.7-.9.1-.2.1-.9.2-2.2.1-1.2.1-2.8.1-4.6v-5.8-6c0-1.9-.1-3.6-.1-5.1.1-1.3.1-2.4.1-3zM730.6 82.2c-1.7.3-4 .5-7 .8-3 .3-6.3.6-9.9.9-3.6.3-7.3.5-11 .8-3.8.2-7.2.4-10.3.4.2 1.7.6 3.2 1.3 4.4.8.5 2 .9 3.6 1.3s3.5.7 5.5.9c2 .3 4.1.5 6.3.6 2.2.2 4.3.3 6.2.5 1.9.2 3.6.3 5.1.5 1.5.2 2.5.4 3 .6.1 1.1 0 2.4 0 3.9-.1 1.5-.3 3-.5 4.4s-.5 2.7-.9 3.9c-.3 1.2-.7 1.9-1.2 2.2-3.6-.1-7.4-.2-11.5-.4s-8.3-.6-12.5-1.1c-4.2-.5-8.4-1.2-12.4-2s-7.7-1.8-11.1-3c-1-1.2-1.7-3-2.3-5.5-.5-2.5-.9-5.4-1.1-8.6-.2-3.2-.1-6.7 0-10.3.2-3.6.6-7.1 1.1-10.5.5-3.4 1.2-6.5 2.1-9.3.8-2.8 1.8-5 2.9-6.6 1.3-.7 3.2-1.4 5.9-2 2.7-.6 5.6-1.2 8.8-1.7 3.2-.5 6.6-.9 10.2-1.3 3.6-.4 6.9-.6 10-.8 3.1-.2 5.8-.2 8.2-.1 2.3.1 4 .3 4.8.7 1.2 2 2.3 4.5 3.1 7.4s1.6 6.1 2.1 9.5c.5 3.3.9 6.7 1.2 10.1.3 3.4.3 6.5.3 9.4zM708 69.9c.1-.7.1-1.5.1-2.4 0-.9 0-1.8-.1-2.8-.1-1-.2-1.9-.4-2.7-.2-.9-.4-1.6-.8-2.2-.9.1-1.7.1-2.5.1s-1.6.1-2.4.2c-.8.1-1.7.3-2.7.5-1 .2-2 .6-3.2 1-.4 1.5-.9 3-1.3 4.6-.4 1.6-.8 3.4-1 5.4 2.8.1 5.5 0 7.9-.4 2.5-.3 4.6-.8 6.4-1.3zM798.3 104.5c-.8.4-2 .9-3.7 1.3-1.7.4-3.6.9-5.7 1.2-2 .4-4.1.7-6.2 1-2.1.3-3.9.4-5.5.5-.5-.6-1.2-1.4-2-2.5s-1.7-2.3-2.7-3.7c-1-1.4-2-2.8-3.1-4.3s-2.2-2.9-3.3-4.2l-5.7 1.5c-.1 2.4-.2 4.4-.1 6.2.1 1.8 0 3.6-.1 5.6-1 .3-2.2.5-3.6.7-1.4.2-3.1.4-4.9.5-1.8.1-3.8.2-5.8.2s-4.1-.1-6.2-.3c-.1-1.7-.3-4.3-.4-7.7-.2-3.4-.3-7.3-.4-11.6-.1-4.3-.2-8.7-.2-13.3v-13c.1-4.1.2-7.6.4-10.7.2-3 .4-5.1.8-6.3.8-.2 1.9-.4 3.4-.7 1.5-.3 3.2-.5 5.1-.7 1.9-.2 3.8-.3 5.9-.4 2-.1 3.9 0 5.7.2v4.6c1.7-.4 3.8-.8 6.2-1.2 2.4-.4 4.9-.7 7.4-.9 2.5-.3 5-.4 7.4-.5 2.4-.1 4.5-.1 6.2 0 1.3 1.1 2.7 2.7 4.1 4.9 1.4 2.2 2.6 4.7 3.6 7.4 1.1 2.8 1.9 5.6 2.4 8.6.6 3 .7 5.9.5 8.5-1 1.2-2.4 2.7-4.3 4.5-1.8 1.9-3.8 3.7-5.8 5.5.6.9 1.4 2.3 2.5 4.1 1.1 1.9 2.2 3.8 3.3 5.8 1.1 2 2.1 3.8 3 5.5 1 2 1.6 3.1 1.8 3.7zM775 74.3c.1-.8 0-1.8 0-3.1-.1-1.3-.2-2.6-.4-3.9-.2-1.3-.4-2.4-.5-3.5-.2-1-.3-1.7-.3-1.9-.5-.2-1.4-.3-2.6-.2-1.2 0-2.5.1-3.8.3-1.3.2-2.6.4-3.9.8-1.2.3-2.2.7-2.7 1.1-.1 1.1-.2 2.3-.3 3.6-.1 1.3-.1 2.6-.1 3.9 0 1.3 0 2.5.1 3.6.1 1.2.2 2.1.4 2.9 1 0 2.1 0 3.4-.1 1.3-.1 2.7-.3 4-.5 1.4-.3 2.7-.6 3.9-1.1 1.1-.5 2.1-1.1 2.8-1.9zM855.2 58c-4 .6-7.9 1-11.9 1.3-3.9.3-7.9.8-11.8 1.5-.8 1.2-1.3 2.5-1.5 4-.2 1.5-.4 3-.4 4.4 4.2.7 8.4 1.7 12.7 2.9 4.2 1.2 8.4 2.2 12.7 2.9.8 1.7 1.4 3.7 1.6 6 .3 2.3.3 4.7.1 7.1-.2 2.4-.6 4.7-1.2 6.9s-1.4 4.1-2.4 5.7c-3.3 1.5-6.7 2.8-10.3 3.9-3.6 1.1-7.2 2-10.8 2.7-3.6.7-7.3 1.4-11 1.9s-7.3 1-10.8 1.3c-.4-.3-.8-1-1.2-2.3-.3-1.3-.6-2.7-.9-4.2-.3-1.5-.4-3-.5-4.4-.1-1.4-.1-2.4 0-3 2-.1 4.1-.2 6.4-.5 2.3-.3 4.6-.6 6.8-1s4.2-.8 6.1-1.2c1.9-.4 3.3-.9 4.2-1.3.2-.6.4-1.5.5-2.6.1-1.1.1-2 0-2.9-.8-.6-2.4-1.1-4.8-1.6s-4.9-1-7.7-1.6c-2.8-.5-5.4-1.1-8-1.8-2.6-.6-4.5-1.3-5.8-2.1-.1-2.3-.1-4.7.1-7.3.2-2.6.5-5.1 1-7.7.4-2.6 1-5.1 1.8-7.6.7-2.5 1.6-4.7 2.6-6.8 6.7-2.2 13.8-3.8 21.3-4.8 7.5-.9 14.8-1.3 21.8-1 .7 1.9 1.1 4.1 1.3 6.4V58z"/>
            <path fill="#5A4B9F" d="M315.2 147.4c-9.2-14.2-14.9-29.1-12.2-46.7 1.7-10.8 1.2-22 1.6-33 .4-12.4 0-24.9 1.4-37.1 1.3-11.4 9.8-17.9 20-21 15.7-4.8 31.8-5.1 47 1.9 9.6 4.4 15.6 11.6 15.9 23.2.7 26.5 1.8 53 3.3 79.5.7 12.2-7.3 20.7-11.3 30.9-.4 1.1-1.4 2-2.1 3-1.3-1-.9-2.5-.9-3.9V52c0-1.3 0-2.6-.2-3.9-.1-.4.1.1 0-.3-.1-.1-.3 0-.3.3-1.6 2.4-2.3 5.5-5.4 6.7-.6.2-.6 1.1-.8 1.7-.3 1.8-1.4 3.1-2.5 4.5-3.5 3.5-6.9 7.3-11.9 8.7-3.6 2.2-7.5 4.1-11.9 3.4-2.8-.4-5.4-1.7-7.7-3.3-4.9-1.6-8.2-5.2-11.7-8.6-1.6-1.8-2.9-3.7-2.8-6.4-3-.7-4-3.2-5.2-5.5-.1-.5-.4-.9-.6-1.3-.1-.1-.2-.3-.4-.4-.5 1.1-.3 2.3-.3 3.3v92.8c.3 1.4 1.1 3.1-1 3.7z"/>
            <path fill="#44318E" d="M377 146.9V86.1c-.8-.9-.7-2.1-.7-3.1-.1-9.6.2-19.2-.3-28.7-.1-1.8.1-3.5.6-5.2-.6-2.1 1.1-3.3 2.3-6.1v105.2c-.4.4-.8.9-1.4 1.6-.3-1.3-.4-2.1-.5-2.9zM317.4 86v60.4c-.1.8-.2 1.6-.2 2.4-1.3.4-2 0-2-1.3.2-1.2.5-2.5.5-3.7V42.6c1.1 2.9 1.6 4.3 2.2 5.6 1.3 5.6.2 11.2.3 16.8.1 5.9 0 11.8 0 17.7 0 1.1.2 2.3-.8 3.3z"/>
            <path fill="#EECE17" d="M334.6 29.9c3.2-5.7 7.8-11.2 12.5-11.3 4.9-.1 9.3 5.7 12.7 11.2h18.7v10.8h-19.2c-.3 1-.6 1.8-.7 2.2-7.7 3.3-15.2 4.2-23-.2-.1-.4-.4-1.3-.7-2.1h-19V29.9h18.7z"/>
            <path fill="#D1C38E" d="M337.9 69.1c2.4 1.2 4.7 2.4 5.9 3 5.5.7 9.3-.8 12.9-3 2.3.5 4.3 1.8 6.9 1.3 4.7-1.1 8.4-3 9.1-8.4.2-1.3.6-2.7 1.8-3.6 1.4-.2 1.8.8 1.8 1.8 0 2.2.6 4.3.2 6.5-1.8 4.1-5 6-9.4 6.6-3.8.5-7.5.8-11.3.6-2.6-.1-3.9 1-4.3 3.5-.3 1.5-.7 3-1 4.6-.3 1.7-1 3.3-3.1 3.3-2.2 0-2.9-1.6-3.3-3.4-.6-2.5-.9-5.1-2.1-7.4-1.4-.8-2.9-.6-4.4-.6-3.8.1-7.5-.3-11.3-.9-3-.4-5.5-1.4-6.9-4.3-.3-.6-1-.8-1.3-1.5-.5-2.5.1-4.9.2-7.3 0-1 .4-1.8 1.6-1.7 1.8 1.4 1.9 3.6 2.6 5.6 1.7 4.8 7.8 7.8 12.5 6.1 1-.3 2-.3 2.9-.8z"/>
            <path fill="#F1F6ED" d="M337.9 69.1c-5.1 5.1-13.7 2.1-16.5-5.8-.5-1.5-.9-3-1.3-4.4 2.6-1.2 4.2 1 6.2 1.9 3.7 2.9 6.8 6.7 11.6 8.3zM374.4 58.8c-2.4 10.9-9.4 15.6-17 11.2-.3-.2-.5-.6-.8-1 4.7-1.6 7.9-5.3 11.5-8.4 2-.8 3.7-3 6.3-1.8z"/>
            <path fill="#AF9459" d="M374.4 58.8c-2.1.6-4.1 1.2-6.2 1.8 1.6-2 2.8-4.1 2.9-6.9 4.1.9 3.1-3.8 5.5-4.7.2 7.8.4 15.5.5 23.3.1 4.6 0 9.2-.1 13.8-.2 0-.3 0-.5-.1-.7-.5-1-1.2-1-1.9 0-4.7-1-9.3-.7-13.9.1-1.2.4-2.3 1-3.4-.2-2.7.6-5.6-1.4-8zM326.3 60.7c-2.1-.6-4.1-1.2-6.2-1.9-2.1 2.5-1.4 5.6-1.6 8.5 1.6 1.9 1.1 4.2.9 6.4-.3 3-.5 6-.5 9 0 1.2 0 2.4-1.1 3.2-.1 0-.3.1-.4.1.1-12.6.3-25.3.4-37.9v-.2c.4.3.3.9.6 1.3.9 1.5 1.7 2.9 2.7 4.6.7-.2 1.4-.4 2.5-.7-.1 3 .6 5.6 2.7 7.6z"/>
            <path fill="#44318E" d="M318.4 49.2c-.2-.4-.4-.8-.6-1.3.2.5.4.9.6 1.3z"/>
            <path fill="#E8DBA6" d="M317.9 86c.2-6.2.4-12.4.7-18.6 6.2 6.9 14.5 4.9 22.3 5.6 4.8.5 2.7 5.6 4.1 8.4.6 1.3.2 3.1 2.4 3 2.2 0 2.1-1.7 2.2-3.1.4-6.1 2.5-9.5 9.8-8.6 6.1.7 12.6.3 16.6-5.8.2 6.4.4 12.8.7 19.2-7.6 7.8-16.5 13.7-26 19-2.2 1.2-4.3 1.4-6.5.1-9.7-5.4-18.7-11.3-26.3-19.2z"/>
            <path fill="#D5AE29" d="M347.3 26.7c5.2 2.2 8 6.1 6.4 11.8-.8 2.9-4.2 2.5-6.4 2.6-2.2.1-5.7.2-6.5-2.4-1.6-5.6.8-9.8 6.5-12z"/>
            <path fill="#404040" d="M59.9 91.1c.1 1.5 0 3.2-.1 5-.1 1.9-.3 3.7-.5 5.5-.2 1.8-.5 3.4-.9 4.8s-.8 2.3-1.3 2.7c-4-.1-8.1-.2-12.5-.3-4.4-.2-8.7-.5-13.1-1s-8.7-1.2-12.9-2.1c-4.3-.9-8.3-2.2-12-3.9-1.1-1.6-1.9-4-2.5-7.2-.6-3-1-6.6-1.2-10.6-.2-4-.2-8.2 0-12.7.2-4.4.6-8.8 1.2-13 .6-4.2 1.4-8.1 2.3-11.6.9-3.6 2-6.4 3.2-8.6 1.5-1 3.6-1.9 6.2-2.7 2.7-.9 5.7-1.7 9-2.4s6.7-1.3 10.2-1.8c3.5-.5 6.8-.8 10-1.1 3.1-.2 5.9-.3 8.3-.1 2.4.1 4.1.4 5.1 1 .1.8.2 1.8.3 3 .1 1.2.2 2.6.2 4.2v5c-.1 1.8-.2 3.6-.5 5.4-2.6.3-5.1.5-7.4.6-2.3.1-4.6.3-6.8.5s-4.3.6-6.3 1.1-4 1.2-6.1 2.2c-.6 2.4-1.1 5.2-1.7 8.4-.5 3.2-.9 6.4-1.2 9.6-.2 3.2-.3 6.3-.1 9.1.2 2.8.7 5.1 1.5 6.9.9.7 2.2 1.2 3.8 1.6 1.6.4 3.4.7 5.4.9 2 .2 4 .3 6.2.4 2.1.1 4.2.2 6.1.3 1.9.1 3.6.2 5 .3 1.5.1 2.5.3 3.1.6zM91.1 32.3c-.3 2.4-.5 5.6-.6 9.6-.2 4.1-.3 8.5-.4 13.4-.1 4.9-.2 9.9-.2 15.1V85c0 4.6.1 8.6.2 12.2.1 3.6.3 6.1.5 7.6-2 .6-3.9 1-5.5 1.4s-3.2.6-4.8.7c-1.6.1-3.2.1-4.8 0-1.7-.1-3.5-.3-5.6-.6-.2-1.7-.4-4.5-.5-8.2-.2-3.7-.3-8-.4-12.7-.1-4.7-.2-9.7-.3-15-.1-5.2-.1-10.3 0-15.1 0-4.8.1-9.2.3-13.1.2-3.9.4-6.8.7-8.8 1.9-.4 3.9-.7 6-1.1 2-.3 4-.5 5.9-.7 1.9-.1 3.7-.2 5.3-.1 1.5.3 3 .5 4.2.8zM159.1 105.8c-.9.3-2.1.5-3.7.8-1.6.3-3.3.5-5.2.7-1.9.2-3.8.4-5.8.6-2 .2-3.7.3-5.3.3l-.4-3.7c-5.4.9-9.9 1.6-13.5 2.1-3.6.5-7 .9-10.1 1.2-.8-.3-1.8-.6-3-1.2-1.2-.5-2.5-1.1-3.8-1.8-1.3-.7-2.7-1.4-4-2.2-1.3-.8-2.5-1.6-3.6-2.4-.3-1.3-.5-3.2-.5-5.6 0-2.4.1-4.8.3-7.4.2-2.6.4-5 .8-7.2.3-2.3.7-4 1.1-5 1.4-.8 3.5-1.7 6.2-2.6 2.8-.9 5.7-1.8 8.9-2.6s6.3-1.6 9.5-2.2c3.1-.6 5.8-1 8.1-1.2.1-.3.1-.9.1-1.8s0-1.6-.1-2c-.7-.2-1.7-.4-3.1-.5-1.4-.1-2.9-.2-4.7-.3-1.8-.1-3.6-.1-5.6 0h-5.8c-1.9 0-3.6 0-5.1.1-1.6.1-2.8.1-3.7.1-.1-1.2 0-2.5 0-3.9.1-1.4.2-2.7.4-3.9s.4-2.4.8-3.3c.3-1 .7-1.7 1.2-2.1 3.5-.4 7.3-.8 11.3-1.1 4-.3 8-.4 11.9-.3 3.9 0 7.6.2 11.2.6 3.6.4 6.8.9 9.6 1.6.8 1.3 1.6 3.2 2.3 5.8.7 2.6 1.3 5.6 1.8 8.9.5 3.4.9 7 1.3 10.8.4 3.9.6 7.7.7 11.4.1 3.7.2 7.3.1 10.7-.2 3.4-.4 6.3-.6 8.6zm-21.8-15.1c-.1-2.4-.2-4.5-.3-6.2-.2-1.7-.4-3.7-.7-5.9-1.1.3-2.2.6-3.5 1-1.2.3-2.4.7-3.6 1-1.2.4-2.2.7-3.2 1.2-1 .4-1.7.8-2.2 1.3v4.5c0 1 .1 1.9.3 2.7.2.9.5 1.4.9 1.7.5.1 1.3.1 2.3 0 1-.1 2.1-.2 3.2-.3 1.2-.1 2.3-.3 3.6-.4 1.1-.3 2.2-.4 3.2-.6zM217.1 58c-4 .6-7.9 1-11.9 1.3-3.9.3-7.9.8-11.8 1.5-.8 1.2-1.3 2.5-1.5 4-.2 1.5-.4 3-.4 4.4 4.2.7 8.4 1.7 12.7 2.9 4.2 1.2 8.4 2.2 12.7 2.9.8 1.7 1.4 3.7 1.6 6 .3 2.3.3 4.7.1 7.1-.2 2.4-.6 4.7-1.2 6.9s-1.4 4.1-2.4 5.7c-3.3 1.5-6.7 2.8-10.3 3.9-3.6 1.1-7.2 2-10.8 2.7-3.6.7-7.3 1.4-11 1.9s-7.3 1-10.8 1.3c-.4-.3-.8-1-1.2-2.3-.3-1.3-.6-2.7-.9-4.2-.3-1.5-.4-3-.5-4.4-.1-1.4-.1-2.4 0-3 2-.1 4.1-.2 6.4-.5 2.3-.3 4.6-.6 6.8-1s4.2-.8 6.1-1.2c1.9-.4 3.3-.9 4.2-1.3.2-.6.4-1.5.5-2.6.1-1.1.1-2 0-2.9-.8-.6-2.4-1.1-4.8-1.6s-4.9-1-7.7-1.6c-2.8-.5-5.4-1.1-8-1.8-2.6-.6-4.5-1.3-5.8-2.1-.1-2.3-.1-4.7.1-7.3.2-2.6.5-5.1 1-7.7.4-2.6 1-5.1 1.8-7.6.7-2.5 1.6-4.7 2.6-6.8 6.7-2.2 13.8-3.8 21.3-4.8 7.5-.9 14.8-1.3 21.8-1 .7 1.9 1.1 4.1 1.3 6.4V58zM283.6 44.7c.2 2.5.3 5.6.4 9.3.1 3.7.1 7.6.1 11.9s0 8.5-.1 12.9-.2 8.5-.3 12.3c-.1 3.9-.2 7.3-.3 10.3-.1 3-.2 5.2-.2 6.7-1 .2-2.4.3-4.3.4-1.9.1-3.9.1-5.9.1h-5.7c-1.8 0-2.9-.1-3.5-.1-.1-1.4-.1-2.9 0-4.5s.2-3.2.2-4.9v-5c0-1.7-.2-3.3-.5-4.8-.6-.1-1.7-.1-3.3-.2-1.5-.1-3.1-.1-4.8-.1-1.6 0-3.1.2-4.5.4s-2.2.7-2.5 1.3c-.3 3.3-.4 6.3-.6 9-.1 2.7-.1 5.6 0 9-3 .6-6.3.9-9.9 1-3.6.1-7 0-10.3-.2-.3-1.7-.5-4.1-.7-7.4-.1-3.3-.2-6.9-.3-10.9-.1-4-.1-8.3 0-12.7 0-4.4.1-8.7.1-12.8.1-4.1.1-7.8.2-11.1.1-3.4.2-5.9.2-7.7.8-.2 1.8-.4 3.2-.6 1.3-.2 2.8-.3 4.3-.4 1.5-.1 3.1-.2 4.7-.2 1.6-.1 3-.1 4.3 0 1.3.1 2.4.2 3.4.3.9.1 1.5.3 1.7.5-.5 3.1-.8 6.5-.8 10.3v10.3c1 .3 2.3.4 3.9.4s3.2-.1 4.8-.2c1.6-.2 3.1-.4 4.5-.6 1.3-.2 2.3-.4 2.8-.6.2-.9.3-2.2.3-3.8 0-1.6 0-3.4-.1-5.3s-.1-3.8-.2-5.6c-.1-1.9 0-3.5.1-4.8.7-.4 2-.7 3.8-.9 1.8-.2 3.8-.4 5.9-.5 2.1-.1 4-.2 5.9-.2 1.9-.6 3.2-.5 4-.3z"/>
        </g>
    </g>
</svg>
